<?xml version="1.0" encoding="UTF-8"?>
<svg width="172px" height="40px" viewBox="0 0 172 40" version="1.1" xmlns="http://www.w3.org/2000/svg" xmlns:xlink="http://www.w3.org/1999/xlink">
    <defs>
        <polygon id="path-1" points="0.419793719 0.441647059 21.5895934 0.441647059 21.5895934 24.9324706 0.419793719 24.9324706"></polygon>
    </defs>
    <g id="Page-1" stroke="none" stroke-width="1" fill="none" fill-rule="evenodd">
        <g id="Prototipo" transform="translate(-50.000000, -20.000000)">
            <g id="Group-76" transform="translate(50.000000, 20.000000)">
                <path d="M20.9106415,10.4741647 C20.9516729,10.5151059 20.9851583,10.5951059 20.9851583,10.6529882 C20.9851583,10.7927529 20.8714966,10.9061647 20.7309523,10.9061647 C20.673414,10.9061647 20.5927661,10.8732235 20.5517347,10.8322824 C18.4846008,8.76969412 15.5925942,7.53063529 12.2723517,7.53063529 C5.63233851,7.53063529 0.684045399,12.4680471 0.684045399,19.0929882 C0.684045399,25.7188706 5.63233851,30.6558118 12.2723517,30.6558118 C15.5925942,30.6558118 18.4846008,29.4162824 20.5517347,27.3541647 C20.5927661,27.3132235 20.673414,27.2798118 20.7309523,27.2798118 C20.8714966,27.2798118 20.9851583,27.3936941 20.9851583,27.5329882 C20.9851583,27.5913412 20.9516729,27.6713412 20.9106415,27.7122824 C18.7482393,29.8699294 15.7194614,31.1621647 12.2723517,31.1621647 C5.37860408,31.1621647 0.177048154,25.9720471 0.177048154,19.0929882 C0.177048154,12.2148706 5.37860408,7.02428235 12.2723517,7.02428235 C15.7194614,7.02428235 18.7482393,8.31651765 20.9106415,10.4741647" id="Fill-1" fill="#E8511D"></path>
                <path d="M51.4198493,7.01642353 C51.5627517,7.01642353 51.6787716,7.13218824 51.6787716,7.27524706 C51.6787716,7.32795294 51.6509457,7.40277647 51.616517,7.44324706 L41.5161887,20.2903059 L41.5161887,30.9100706 L41.5161887,30.9166588 C41.5161887,31.0564235 41.4029986,31.1698353 41.2624542,31.1698353 C41.1228531,31.1698353 41.0087198,31.0564235 41.0087198,30.9166588 C41.0087198,30.9147765 41.0091914,30.9119529 41.0091914,30.9100706 L41.0091914,20.2903059 L30.908863,7.44324706 C30.8767925,7.40371765 30.8513247,7.33124706 30.8513247,7.28089412 C30.8513247,7.13830588 30.9673446,7.02254118 31.1102471,7.02254118 L31.1154349,7.02254118 C31.1847639,7.02395294 31.2748443,7.06912941 31.316819,7.12418824 L41.2624542,19.7754824 L51.2095044,7.12418824 C51.2510074,7.06630588 51.3425027,7.01830588 51.4141898,7.01642353 C51.4156046,7.01642353 51.4184344,7.01642353 51.4198493,7.01642353" id="Fill-3" fill="#E8511D"></path>
                <path d="M71.0233812,7.04056471 C72.7297217,7.04056471 74.7926109,7.19162353 76.4626363,7.96009412 C78.1326616,8.72856471 79.402277,10.1662118 79.402277,12.5920941 C79.402277,15.0179765 78.1392644,16.5342118 76.4715971,17.3906824 C75.7415211,17.7652706 74.9350418,18.0165647 74.1158285,18.1869176 C75.1585922,18.3398588 76.2159762,18.6146824 77.1592269,19.1040941 C78.9108434,20.0132706 80.2479013,21.6890353 80.2479013,24.5266824 C80.2479013,27.3643294 78.9127299,29.0645647 77.1620566,30.0005647 C75.4113834,30.9365647 73.2636015,31.1459765 71.5520732,31.1459765 L63.0939442,31.1459765 L63.0911145,31.1459765 C62.9600026,31.1459765 62.8538869,31.0400941 62.8538869,30.9092706 C62.8538869,30.7784471 62.9600026,30.6720941 63.0911145,30.6720941 L63.0939442,30.6720941 L71.5520732,30.6720941 C73.2235134,30.6720941 75.3052677,30.4560941 76.9380346,29.5831529 C78.5708015,28.7102118 79.7729745,27.2193882 79.7729745,24.5266824 C79.7729745,21.8339765 78.572688,20.3713882 76.9403927,19.5243294 C75.3080974,18.6772706 73.2258715,18.4862118 71.5520732,18.4862118 L71.0233812,18.4862118 L63.0939442,18.4862118 L63.0911145,18.4862118 C62.9600026,18.4862118 62.8538869,18.3798588 62.8538869,18.2490353 C62.8538869,18.1186824 62.9600026,18.0123294 63.0911145,18.0123294 C63.0920577,18.0123294 63.093001,18.0123294 63.0939442,18.0123294 L71.0233812,18.0123294 C72.6924633,18.0123294 74.6973426,17.7685647 76.2541779,16.9695059 C77.8110131,16.1699765 78.9273503,14.8584471 78.9273503,12.5920941 C78.9273503,10.3257412 77.8185591,9.10597647 76.2636104,8.39021176 C74.7086616,7.67444706 72.7004809,7.51397647 71.0233812,7.51397647 L63.0939442,7.51397647 L63.0911145,7.51397647 C62.9600026,7.51397647 62.8534153,7.40809412 62.8534153,7.27727059 C62.8534153,7.14644706 62.9600026,7.04056471 63.0911145,7.04056471 L63.0939442,7.04056471 L71.0233812,7.04056471 Z" id="Fill-5" fill="#E8511D"></path>
                <path d="M131.438871,19.5823529 C132.732067,19.4378824 134.103554,19.1094118 135.256206,18.4661176 C136.889445,17.5545882 138.086902,16.0736471 138.086902,13.5870588 C138.086902,11.1004706 136.890388,9.628 135.257621,8.72447059 C133.624383,7.82094118 131.544515,7.52635294 129.881564,7.52635294 L121.945996,7.52635294 L131.438871,19.5823529 Z M129.881564,7.02 C131.602996,7.02 133.752665,7.31270588 135.502866,8.28117647 C137.25354,9.24964706 138.59437,10.9338824 138.59437,13.5870588 C138.59437,16.2397647 137.254483,17.932 135.504281,18.9084706 C134.361533,19.5461176 133.054188,19.8764706 131.801079,20.0425882 L140.231854,30.7489412 C140.264867,30.788 140.29175,30.8614118 140.29175,30.9131765 C140.29175,31.0529412 140.178088,31.1663529 140.038016,31.1663529 C139.9668,31.1663529 139.874833,31.1192941 139.832859,31.0618824 L131.22098,20.1254118 C130.757372,20.1677647 130.306027,20.1861176 129.881564,20.1861176 L121.677641,20.1861176 L121.677641,30.9051765 L121.677641,30.9117647 C121.677641,31.052 121.563979,31.1649412 121.423907,31.1649412 C121.283834,31.1649412 121.170172,31.052 121.170172,30.9117647 L121.170172,30.9051765 L121.170172,19.9334118 C121.170172,19.7936471 121.283834,19.6802353 121.423907,19.6802353 L129.881564,19.6802353 C130.183876,19.6802353 130.510712,19.6571765 130.83519,19.6355294 L121.224409,7.42988235 C121.194225,7.39176471 121.170172,7.32164706 121.170172,7.27317647 C121.170172,7.13341176 121.283834,7.02047059 121.423907,7.02 L129.881564,7.02 Z" id="Fill-7" fill="#E8511D"></path>
                <path d="M170.872079,10.4741647 C170.913582,10.5151059 170.946596,10.5951059 170.946596,10.6529882 C170.946596,10.7927529 170.832934,10.9061647 170.692861,10.9061647 C170.634851,10.9061647 170.554203,10.8732235 170.513172,10.8322824 C168.44651,8.76969412 165.554032,7.53063529 162.234261,7.53063529 C155.593776,7.53063529 150.645954,12.4680471 150.645954,19.0929882 C150.645954,25.7188706 155.593776,30.6558118 162.234261,30.6558118 C165.517716,30.6558118 168.377181,29.4365176 170.439127,27.4148706 L170.439127,19.3466353 L158.85082,19.3466353 C158.710748,19.3466353 158.597086,19.2332235 158.597086,19.0934588 C158.597086,18.9536941 158.710748,18.8402824 158.85082,18.8402824 L170.692861,18.8402824 C170.832934,18.8402824 170.946124,18.9536941 170.946596,19.0929882 L170.946596,27.5329882 L170.946596,27.5334588 C170.946596,27.5913412 170.91311,27.6713412 170.872079,27.7122824 C168.709677,29.8699294 165.680899,31.1621647 162.234261,31.1621647 C155.340041,31.1621647 150.138486,25.9720471 150.138486,19.0929882 C150.138486,12.2148706 155.340041,7.02428222 162.234261,7.02428222 C165.680899,7.02381176 168.709677,8.31651765 170.872079,10.4741647" id="Fill-9" fill="#E8511D"></path>
                <path d="M12.2726347,7.20117647 C8.89909862,7.20117647 6.03869091,8.34847059 3.77111625,10.6110588 C1.5035416,12.8736471 0.353719008,15.7277647 0.353719008,19.0934118 C0.353719008,22.4585882 1.5035416,25.3127059 3.77111625,27.5762353 C6.03916253,29.8388235 8.89957025,30.9861176 12.2726347,30.9861176 C15.6711669,30.9861176 18.5372342,29.8454118 20.7925466,27.5950588 C20.8052804,27.5823529 20.8165994,27.5658824 20.8165994,27.5305882 C20.8165994,27.452 20.8066953,27.4421176 20.7279339,27.4421176 C20.692562,27.4421176 20.6755835,27.4538824 20.6628496,27.4661176 C18.4410226,29.7094118 15.6178733,30.8472941 12.2726347,30.8472941 C8.92786777,30.8472941 6.0981157,29.716 3.86261157,27.4849412 C1.62663581,25.2543529 0.492848485,22.4308235 0.492848485,19.0934118 C0.492848485,15.7564706 1.62663581,12.9329412 3.86261157,10.7018824 C6.09858733,8.47082353 8.92833939,7.33952941 12.2726347,7.33952941 C15.61693,7.33952941 18.4400793,8.47741176 20.6637928,10.7216471 C20.67747,10.7352941 20.6935052,10.7447059 20.7279339,10.7447059 C20.8076386,10.7447059 20.8165994,10.7352941 20.8165994,10.6562353 C20.8165994,10.6209412 20.8048088,10.604 20.7916033,10.5912941 C18.5367625,8.34188235 15.6702237,7.20117647 12.2726347,7.20117647 M12.2726347,31.3390588 C8.80241543,31.3390588 5.8580584,30.1569412 3.52115482,27.8256471 C1.18472287,25.4938824 0,22.5555294 0,19.0934118 C0,15.6308235 1.18472287,12.6929412 3.52115482,10.3616471 C5.85758678,8.03035294 8.8019438,6.84823529 12.2726347,6.84823529 C15.7673785,6.84823529 18.7183383,8.02376471 21.042508,10.3423529 C21.1264573,10.4265882 21.1703185,10.5348235 21.1703185,10.6562353 C21.1703185,10.9282353 21.001005,11.0976471 20.7279339,11.0976471 C20.604368,11.0976471 20.4954226,11.0534118 20.4124165,10.9701176 C18.2575603,8.79505882 15.518832,7.69247059 12.2726347,7.69247059 C9.02549421,7.69247059 6.27969146,8.78894118 4.112573,10.9512941 C1.94545455,13.1136471 0.846567493,15.8534118 0.846567493,19.0934118 C0.846567493,22.3338824 1.94545455,25.0736471 4.112573,27.2355294 C6.27921983,29.3978824 9.02502259,30.4943529 12.2726347,30.4943529 C15.5197752,30.4943529 18.2585036,29.3917647 20.4124165,27.2167059 C20.4973091,27.1324706 20.6062545,27.0891765 20.7279339,27.0891765 C21.001005,27.0891765 21.1703185,27.2581176 21.1703185,27.5305882 C21.1703185,27.6524706 21.1259857,27.7611765 21.042508,27.8444706 C18.7188099,30.1630588 15.7683218,31.3390588 12.2726347,31.3390588" id="Fill-11" fill="#E8511D"></path>
                <path d="M41.1587438,30.9776 C41.1615736,30.9776 41.2870259,30.9757176 41.2874975,30.9757176 L41.2917421,30.8976 L41.2917421,20.2430118 L41.3294722,20.1950118 L51.4533818,7.33148235 C51.4425344,7.33618824 51.4533818,7.31124706 51.4538534,7.28912941 C51.4538534,7.21101176 51.4439493,7.20112941 51.3651879,7.20112941 C51.3585851,7.20112941 51.3458512,7.20112941 51.3227416,7.23548235 L51.314724,7.24677647 L41.2412782,20.0604235 L31.1301025,7.24724706 C31.0985036,7.20112941 31.0852981,7.20112941 31.0796386,7.20112941 C30.9999339,7.20112941 30.990973,7.21007059 30.990973,7.28912941 L31.0291747,7.33195294 L41.1526127,20.2430118 L41.1587438,30.9776 Z M41.2224132,31.3390118 C40.9611328,31.3390118 40.7988937,31.1841882 40.7988937,30.9352471 L40.7988937,20.3648941 L30.7504441,7.54936471 C30.6806435,7.48301176 30.637254,7.38936471 30.637254,7.28912941 C30.637254,7.01665882 30.8065675,6.84818824 31.0796386,6.84818824 C31.1744353,6.84818824 31.3097917,6.88112941 31.4159074,7.03971765 L41.2408066,19.4891294 L51.032692,7.03407059 C51.1373928,6.88018824 51.2708628,6.84818824 51.3651879,6.84818824 C51.6377873,6.84818824 51.8075725,7.01665882 51.8075725,7.28912941 C51.8075725,7.36630588 51.7882358,7.44395294 51.7505058,7.51924706 L41.6454612,20.3648941 L41.6454612,30.8976 C41.6454612,31.1841882 41.483222,31.3390118 41.2224132,31.3390118 L41.2224132,31.3390118 Z" id="Fill-13" fill="#E8511D"></path>
                <path d="M63.0432917,30.8472941 C63.0032035,30.8515294 62.9928278,30.8670588 62.9928278,30.9164706 C62.9928278,30.9658824 63.0032035,30.9818824 63.0032035,30.9818824 L71.4990625,30.9861176 C73.7826724,30.9861176 75.6418195,30.5988235 77.0250966,29.8350588 C79.0290327,28.7870588 80.0430272,27.0068235 80.0430272,24.5414118 C80.0430272,22.0769412 79.0290327,20.2967059 77.0288696,19.2496471 C76.217674,18.8327059 75.2154702,18.5329412 74.0514988,18.3597647 L73.0313732,18.2077647 L74.0439528,18.012 C74.9315517,17.8402353 75.7054889,17.5790588 76.3440696,17.2355294 C78.2470779,16.2491765 79.1714636,14.7291765 79.1714636,12.5861176 C79.1714636,10.4482353 78.2499077,8.99082353 76.354917,8.13105882 C75.0423837,7.51364706 73.2313424,7.20117647 70.9680123,7.20117647 L63.0432917,7.20117647 C63.0032035,7.20541176 62.9928278,7.22094118 62.9928278,7.27035294 C62.9928278,7.31976471 63.0032035,7.33529412 63.0032035,7.33529412 L70.9680123,7.33952941 C73.2072895,7.33952941 75.0051253,7.63788235 76.3115275,8.22564706 C78.1428487,9.08729412 79.0700641,10.5541176 79.0700641,12.5861176 C79.0700641,14.6661176 78.1315297,16.1955294 76.2804002,17.132 C74.9221192,17.8223529 73.1346592,18.1724706 70.9680123,18.1724706 L63.0432917,18.1724706 C63.0032035,18.1767059 62.9928278,18.1922353 62.9928278,18.2421176 C62.9928278,18.292 63.0032035,18.3075294 63.0032035,18.3075294 L71.4990625,18.3117647 C73.7902184,18.3117647 75.6413479,18.6614118 77.0015154,19.3517647 C78.9281049,20.3658824 79.9038977,22.1112941 79.9038977,24.5414118 C79.9038977,26.9470588 78.915371,28.6924706 76.9661435,29.7291765 C75.6083341,30.4708235 73.7685236,30.8472941 71.4990625,30.8472941 L63.0432917,30.8472941 Z M71.4990625,31.3390588 L63.0432917,31.3390588 C62.7938019,31.3390588 62.6391088,31.1771765 62.6391088,30.9164706 C62.6391088,30.6562353 62.7938019,30.4943529 63.0432917,30.4943529 L71.4990625,30.4943529 C73.7086272,30.4943529 75.491371,30.1324706 76.7982448,29.4185882 C78.6507892,28.4336471 79.5501787,26.8383529 79.5501787,24.5414118 C79.5501787,22.22 78.6635231,20.6251765 76.8388046,19.6651765 C75.5314592,19.0016471 73.734095,18.6647059 71.4990625,18.6647059 L63.0432917,18.6647059 C62.7938019,18.6647059 62.6391088,18.5028235 62.6391088,18.2421176 C62.6391088,17.9814118 62.7938019,17.8195294 63.0432917,17.8195294 L70.9680123,17.8195294 C73.0785358,17.8195294 74.8122305,17.4825882 76.1205192,16.8176471 C77.8674195,15.9338824 78.7163451,14.5494118 78.7163451,12.5861176 C78.7163451,10.676 77.8810966,9.35458824 76.1634371,8.54611765 C74.9056123,7.98 73.1568256,7.69247059 70.9680123,7.69247059 L63.0432917,7.69247059 C62.7938019,7.69247059 62.6391088,7.53058824 62.6391088,7.27035294 C62.6391088,7.01011765 62.7938019,6.84823529 63.0432917,6.84823529 L70.9680123,6.84823529 C73.2836928,6.84823529 75.1461413,7.172 76.503479,7.81058824 C78.5078867,8.72023529 79.5251826,10.3272941 79.5251826,12.5861176 C79.5251826,14.8416471 78.5102448,16.5108235 76.5096101,17.5475294 C76.0507187,17.7941176 75.5262713,18.0002353 74.943814,18.1630588 C75.7955694,18.3470588 76.5492267,18.6058824 77.192052,18.9362353 C79.3190823,20.0501176 80.3967462,21.9357647 80.3967462,24.5414118 C80.3967462,27.1484706 79.3186107,29.0341176 77.1929953,30.1456471 C75.7601975,30.9367059 73.8430404,31.3390588 71.4990625,31.3390588 L71.4990625,31.3390588 Z" id="Fill-15" fill="#E8511D"></path>
                <path d="M122.25458,7.69242353 L131.48476,19.3983059 C132.927933,19.2208941 134.147557,18.8505412 135.111087,18.2971294 C136.965518,17.2858353 137.865851,15.7460706 137.865851,13.5884235 C137.865851,11.4307765 136.97778,9.89101176 135.151647,8.88112941 C133.718849,8.09242353 131.935634,7.69242353 129.852936,7.69242353 L122.25458,7.69242353 Z M131.329595,19.7714824 L131.268284,19.6943059 L121.525919,7.33948235 L129.852936,7.33948235 C131.996002,7.33948235 133.836755,7.75407059 135.322375,8.57242353 C137.24472,9.63501176 138.21957,11.3230118 138.21957,13.5884235 C138.21957,15.8552471 137.231986,17.5427765 135.284174,18.6048941 C134.260275,19.1926588 132.961419,19.5823059 131.427693,19.7606588 L131.329595,19.7714824 Z M131.25838,19.9286588 L139.926382,30.9399529 C139.946662,30.9691294 139.961754,30.9856 140.014576,30.9856 C140.050891,30.9808941 140.065511,30.9625412 140.065511,30.8976 C140.065511,30.8750118 140.058909,30.8505412 140.046175,30.8241882 L131.418732,19.9065412 L131.724817,19.8646588 C133.16186,19.6670118 134.391387,19.2919529 135.379442,18.7498353 C137.381963,17.6528941 138.397373,15.9164235 138.397373,13.5884235 C138.397373,11.2604235 137.381963,9.52395294 135.379442,8.42748235 C133.89618,7.61383529 132.036562,7.20112941 129.852936,7.20112941 L121.397165,7.20112941 C121.318404,7.20112941 121.308971,7.21007059 121.308971,7.28912941 C121.308971,7.31218824 121.315574,7.33618824 121.327836,7.36207059 L131.137172,19.7630118 L130.820711,19.7983059 C130.354274,19.8500706 130.037342,19.8754824 129.852936,19.8754824 L121.397165,19.8754824 C121.332081,19.8754824 121.313688,19.8896 121.313688,19.8896 L121.308971,30.8976 C121.308971,30.9856 121.321234,30.9856 121.3783,30.9856 C121.434895,30.9856 121.448101,30.9856 121.448101,30.8976 L121.448101,20.0143059 L129.852936,20.0143059 C130.276456,20.0143059 130.716011,19.9893647 131.160282,19.9394824 L131.25838,19.9286588 Z M140.014576,31.3385412 C139.85328,31.3385412 139.724055,31.2721882 139.640105,31.1470118 L131.1018,20.3008941 C130.677337,20.3451294 130.258062,20.3672471 129.852936,20.3672471 L121.80182,20.3672471 L121.80182,30.8976 C121.80182,31.1696 121.639109,31.3385412 121.3783,31.3385412 C121.117492,31.3385412 120.955252,31.1696 120.955252,30.8976 L120.955252,19.9258353 C120.955252,19.7310118 121.071272,19.5225412 121.397165,19.5225412 L129.852936,19.5225412 C129.978389,19.5225412 130.183546,19.5084235 130.463219,19.4811294 L121.031184,7.55030588 C120.974117,7.44489412 120.955252,7.36771765 120.955252,7.28912941 C120.955252,7.01712941 121.124566,6.84818824 121.397165,6.84818824 L129.852936,6.84818824 C132.09693,6.84818824 134.013615,7.27548235 135.549699,8.11783529 C137.673899,9.28112941 138.751092,11.1220706 138.751092,13.5884235 C138.751092,16.0552471 137.673899,17.8957176 135.549699,19.0590118 C134.594657,19.5832471 133.427385,19.9564235 132.07665,20.1696 L140.343299,30.6368941 C140.400365,30.7432471 140.41923,30.8204235 140.41923,30.8976 C140.41923,31.2227765 140.209829,31.3385412 140.014576,31.3385412 L140.014576,31.3385412 Z" id="Fill-17" fill="#E8511D"></path>
                <g id="Group-21" transform="translate(149.505234, 6.406588)">
                    <mask id="mask-2" fill="white">
                        <use xlink:href="#path-1"></use>
                    </mask>
                    <g id="Clip-20"></g>
                    <path d="M12.6919568,0.794588235 C9.31936397,0.794588235 6.45895625,1.94188235 4.1913816,4.20447059 C1.92333532,6.46705882 0.773512727,9.32117647 0.773512727,12.6868235 C0.773512727,16.0524706 1.92333532,18.9061176 4.1913816,21.1696471 C6.45942788,23.4322353 9.31983559,24.5795294 12.6919568,24.5795294 C16.0900174,24.5795294 18.9565563,23.4388235 21.211397,21.1884706 C21.2246025,21.1757647 21.2359215,21.1592941 21.2359215,21.124 L21.2359215,12.6868235 C21.2359215,12.6087059 21.2260174,12.5988235 21.1477276,12.5988235 L9.31747747,12.5988235 C9.23824441,12.5988235 9.2288119,12.6077647 9.2288119,12.6868235 C9.2288119,12.7658824 9.23824441,12.7752941 9.31747747,12.7752941 L21.0585904,12.7752941 L21.0585904,21.0844706 L21.00624,21.1362353 C18.7829981,23.3287059 15.9857882,24.4407059 12.6919568,24.4407059 C9.34671824,24.4407059 6.5174378,23.3094118 4.28193366,21.0783529 C2.04595791,18.8477647 0.911698953,16.0242353 0.911698953,12.6868235 C0.911698953,9.34988235 2.04595791,6.52635294 4.28193366,4.29529412 C6.51790942,2.06423529 9.34718986,0.932941176 12.6919568,0.932941176 C16.0362521,0.932941176 18.8594014,2.07082353 21.0835866,4.31505882 C21.0953772,4.32729412 21.1114125,4.33811765 21.1477276,4.33811765 C21.2269607,4.33811765 21.2359215,4.32870588 21.2359215,4.24964706 C21.2359215,4.21435294 21.2241309,4.19741176 21.211397,4.18517647 C18.9560846,1.93529412 16.0895458,0.794588235 12.6919568,0.794588235 M12.6919568,24.9324706 C9.22268077,24.9324706 6.27785212,23.7503529 3.94094854,21.4190588 C1.60404496,19.0872941 0.419793719,16.1494118 0.419793719,12.6868235 C0.419793719,9.22423529 1.60404496,6.28588235 3.94047691,3.95505882 C6.2773805,1.62376471 9.22220915,0.441647059 12.6919568,0.441647059 C16.1867006,0.441647059 19.1376604,1.61717647 21.4618301,3.93576471 C21.5453078,4.01952941 21.5896406,4.12776471 21.5896406,4.24964706 C21.5896406,4.52164706 21.4203271,4.69105882 21.1477276,4.69105882 C21.0236901,4.69105882 20.9147447,4.64682353 20.8322102,4.56305882 C18.6768824,2.38847059 15.9386257,1.28588235 12.6919568,1.28588235 C9.44434468,1.28588235 6.69948518,2.38235294 4.53236672,4.54470588 C2.36477664,6.70752941 1.26541796,9.44682353 1.26541796,12.6868235 C1.26541796,15.9272941 2.36477664,18.6665882 4.5318951,20.8289412 C6.69901355,22.9912941 9.44387306,24.0877647 12.6919568,24.0877647 C15.8636372,24.0877647 18.5589761,23.0275294 20.7048714,20.9367059 L20.7048714,13.1282353 L9.31747747,13.1282353 C9.04063339,13.1282353 8.87509289,12.9630588 8.87509289,12.6868235 C8.87509289,12.4148235 9.04487802,12.2458824 9.31747747,12.2458824 L21.1477276,12.2458824 C21.4203271,12.2458824 21.5896406,12.4148235 21.5896406,12.6868235 L21.5896406,21.124 C21.5896406,21.2463529 21.5453078,21.3550588 21.4618301,21.4383529 C19.138132,23.7564706 16.1871722,24.9324706 12.6919568,24.9324706" id="Fill-19" fill="#E8511D" mask="url(#mask-2)"></path>
                </g>
                <path d="M99.0201463,27.2434353 C107.672113,27.2434353 111.115922,23.4453176 111.115922,19.7352 C111.115922,17.8749647 108.993136,16.0716706 105.724772,16.3521412 C102.192298,16.6519059 95.6664185,16.5229647 92.3174069,16.3521412 C88.0407083,16.1333176 86.9248428,17.8749647 86.9248428,19.7352 C86.9248428,23.2923765 90.2648934,27.2434353 99.0201463,27.2434353" id="Fill-22" fill="#E8511D"></path>
                <path d="M91.6136948,16.5099765 C89.9125421,16.5099765 88.6773554,16.8643294 87.9373752,17.5659765 C87.3827438,18.0916235 87.1016551,18.8215059 87.1016551,19.7353882 C87.1016551,23.1175059 90.2228716,27.0671529 99.0200992,27.0671529 C104.518307,27.0671529 110.939487,25.1466824 110.939487,19.7353882 C110.939487,19.0102118 110.593313,18.2944471 109.965109,17.7193882 C108.978468,16.8163294 107.43814,16.3805647 105.739817,16.5278588 C102.258279,16.8233882 95.7894656,16.7062118 92.3083989,16.5283294 C92.0688132,16.5160941 91.8372452,16.5099765 91.6136948,16.5099765 M99.0200992,27.4200941 C89.9615912,27.4200941 86.7479361,23.2803294 86.7479361,19.7353882 C86.7479361,18.7212706 87.0658116,17.9052706 87.6935449,17.3104471 C88.6047251,16.4469176 90.1615603,16.0666824 92.3267923,16.1758588 C95.7979548,16.3532706 102.245545,16.4704471 105.709633,16.1763294 C107.50794,16.0205647 109.145424,16.4897412 110.204223,17.4591529 C110.906001,18.1019765 111.293206,18.9104471 111.293206,19.7353882 C111.293206,23.2803294 108.078607,27.4200941 99.0200992,27.4200941" id="Fill-24" fill="#E8511D"></path>
                <path d="M94.3697318,20.5106824 C94.3697318,22.0038588 93.1581263,23.2128 91.6621307,23.2128 C90.1647202,23.2128 88.9545296,22.0038588 88.9545296,20.5106824 C88.9545296,19.0189176 90.1647202,17.8104471 91.6621307,17.8104471 C93.1581263,17.8104471 94.3697318,19.0189176 94.3697318,20.5106824" id="Fill-26" fill="#FEFEFE"></path>
                <path d="M91.6620364,17.9870118 C90.266497,17.9870118 89.1312948,19.1192471 89.1312948,20.5107765 C89.1312948,21.9032471 90.266497,23.0364235 91.6620364,23.0364235 C93.0575758,23.0364235 94.192778,21.9032471 94.192778,20.5107765 C94.192778,19.1192471 93.0575758,17.9870118 91.6620364,17.9870118 M91.6620364,23.3893647 C90.0717157,23.3893647 88.7775758,22.0980706 88.7775758,20.5107765 C88.7775758,18.9244235 90.0717157,17.6340706 91.6620364,17.6340706 C93.252357,17.6340706 94.546497,18.9244235 94.546497,20.5107765 C94.546497,22.0980706 93.252357,23.3893647 91.6620364,23.3893647" id="Fill-28" fill="#E8511D"></path>
                <path d="M109.084537,20.5106824 C109.084537,22.0038588 107.872931,23.2128 106.377407,23.2128 C104.884242,23.2128 103.669806,22.0038588 103.669806,20.5106824 C103.669806,19.0189176 104.884242,17.8104471 106.377407,17.8104471 C107.872931,17.8104471 109.084537,19.0189176 109.084537,20.5106824" id="Fill-30" fill="#FEFEFE"></path>
                <path d="M106.377313,17.9870118 C104.981774,17.9870118 103.846571,19.1192471 103.846571,20.5107765 C103.846571,21.9032471 104.981774,23.0364235 106.377313,23.0364235 C107.772381,23.0364235 108.907583,21.9032471 108.907583,20.5107765 C108.907583,19.1192471 107.772381,17.9870118 106.377313,17.9870118 M106.377313,23.3893647 C104.786992,23.3893647 103.492852,22.0980706 103.492852,20.5107765 C103.492852,18.9244235 104.786992,17.6340706 106.377313,17.6340706 C107.967634,17.6340706 109.261302,18.9244235 109.261302,20.5107765 C109.261302,22.0980706 107.967634,23.3893647 106.377313,23.3893647" id="Fill-32" fill="#E8511D"></path>
                <path d="M99.0634415,0.349835294 C98.9903396,0.349835294 98.9427055,0.355011765 98.9332729,0.356423529 C98.4640057,0.403952941 98.1168895,0.565364706 97.8971121,0.837364706 C97.5735771,1.23877647 97.627814,1.75830588 97.6282856,1.76348235 C97.6858239,2.80254118 98.3956201,3.06136471 98.4253325,3.07218824 L98.5611606,3.11924706 L98.1706548,6.18701176 L98.0612377,6.22042353 C97.3967176,6.42371765 97.0778988,7.54089412 97.0745975,7.55218824 L97.0439418,7.66277647 L96.9302801,7.67971765 C83.9553953,9.58889412 83.8054184,19.5070118 83.8054184,19.6067765 C84.5109699,32.1474824 98.9554393,32.2919529 99.1011716,32.2919529 C113.95454,31.6025412 114.234686,20.0486588 114.235629,19.9319529 C114.076691,9.25336471 101.391384,7.69430588 101.263102,7.67971765 L101.126802,7.66418824 L101.107937,7.52865882 C100.962677,6.49571765 100.263728,6.22795294 100.256654,6.2256 L100.160442,6.19030588 L99.6355231,3.14748235 L99.7854999,3.10277647 C100.604713,2.85807059 100.581132,1.8336 100.579717,1.79030588 C100.37456,0.474070588 99.4176322,0.349835294 99.0634415,0.349835294 L99.0634415,0.349835294 Z M99.1091892,32.6448941 C98.9342162,32.6448941 84.1761159,32.4886588 83.4516994,19.6166588 C83.4516994,19.5041882 83.6035628,9.33995294 96.7685126,7.34701176 C96.8717986,7.04018824 97.2061809,6.19642353 97.848063,5.92348235 L98.1763143,3.34607059 C97.9074878,3.20536471 97.33069,2.78936471 97.2764531,1.7936 C97.274095,1.77807059 97.2028796,1.13854118 97.6188531,0.619952941 C97.8999418,0.269364706 98.3286493,0.0627764706 98.8936564,0.00583529412 C98.9073336,0.00442352941 100.630653,-0.185223529 100.93155,1.75736471 C100.949,2.21101176 100.775913,3.07077647 100.035933,3.38748235 L100.475959,5.93854118 C100.704226,6.0576 101.263102,6.43454118 101.436189,7.34701176 C102.819937,7.54701176 114.435126,9.54371765 114.589348,19.9310118 C114.588405,20.0552471 114.301656,31.9399529 99.1096608,32.6448941 L99.1091892,32.6448941 Z" id="Fill-34" fill="#E8511D"></path>
                <path d="M123.812689,35.8528 C123.820707,35.8603294 123.826366,35.8749176 123.826366,35.8857412 C123.826366,35.9111529 123.805615,35.9318588 123.780147,35.9318588 C123.769299,35.9318588 123.754679,35.9257412 123.747133,35.9182118 C123.368418,35.5403294 122.838311,35.3130353 122.229443,35.3130353 C121.012178,35.3130353 120.10477,36.2184471 120.10477,37.4330353 C120.10477,38.6476235 121.012178,39.5525647 122.229443,39.5525647 C122.838311,39.5525647 123.368418,39.3252706 123.747133,38.9473882 C123.754679,38.9398588 123.769299,38.9337412 123.780147,38.9337412 C123.805615,38.9337412 123.826366,38.9544471 123.826366,38.9803294 C123.826366,38.9906824 123.820707,39.0057412 123.812689,39.0132706 C123.416524,39.4085647 122.860949,39.6457412 122.229443,39.6457412 C120.965487,39.6457412 120.011389,38.6942118 120.011389,37.4330353 C120.011389,36.1718588 120.965487,35.2203294 122.229443,35.2203294 C122.860949,35.2203294 123.416524,35.4570353 123.812689,35.8528" id="Fill-36" fill="#EF8300"></path>
                <path d="M125.96448,37.4330353 C125.96448,38.6066824 126.819065,39.5525647 128.035386,39.5525647 C129.251708,39.5525647 130.213824,38.6038588 130.213824,37.4330353 C130.213824,36.2617412 129.251708,35.3130353 128.035386,35.3130353 C126.819065,35.3130353 125.96448,36.2589176 125.96448,37.4330353 M130.306734,37.4330353 C130.306734,38.6546824 129.300286,39.6457412 128.035386,39.6457412 C126.770487,39.6457412 125.871569,38.6518588 125.871569,37.4330353 C125.871569,36.2137412 126.770487,35.2203294 128.035386,35.2203294 C129.300286,35.2203294 130.306734,36.2109176 130.306734,37.4330353" id="Fill-38" fill="#EF8300"></path>
                <path d="M135.498339,35.22 C135.524278,35.22 135.54503,35.2407059 135.54503,35.2665882 L135.54503,35.2670588 L135.54503,39.5992941 C135.54503,39.6251765 135.524278,39.6458824 135.498339,39.6458824 C135.485605,39.6458824 135.468626,39.6374118 135.460609,39.6265882 L132.44315,35.412 L132.44315,39.5992941 L132.44315,39.5997647 C132.44315,39.6251765 132.42287,39.6458824 132.39693,39.6458824 C132.370991,39.6458824 132.35024,39.6251765 132.35024,39.5997647 L132.35024,39.5992941 L132.35024,35.2670588 C132.35024,35.2411765 132.370991,35.2204706 132.39693,35.2204706 C132.410136,35.2204706 132.427114,35.2294118 132.43466,35.2397647 L135.451648,39.4548235 L135.451648,35.2670588 L135.451648,35.2665882 C135.451648,35.2411765 135.472399,35.22 135.497867,35.22 L135.498339,35.22 Z" id="Fill-40" fill="#EF8300"></path>
                <path d="M141.631308,35.7944471 C141.639797,35.8019765 141.6464,35.8175059 141.6464,35.8288 C141.6464,35.8542118 141.625176,35.8749176 141.60018,35.8749176 C141.588861,35.8749176 141.573769,35.8688 141.566223,35.8608 C141.243632,35.5455059 140.659288,35.3130353 139.88818,35.3130353 C139.280727,35.3130353 138.810988,35.4659765 138.494999,35.6810353 C138.179482,35.8960941 138.019129,36.1718588 138.019129,36.4193882 C138.019129,36.5742118 138.071951,36.6970353 138.167219,36.8029176 C138.262488,36.9088 138.401617,36.9963294 138.572817,37.0697412 C138.913802,37.2165647 139.37741,37.3059765 139.842433,37.3944471 C140.307455,37.4833882 140.774836,37.5709176 141.130913,37.7215059 C141.309187,37.7963294 141.460579,37.8876235 141.568581,38.0057412 C141.677527,38.1238588 141.740725,38.2702118 141.740725,38.4438588 C141.740725,38.8217412 141.494065,39.1257412 141.136101,39.3299765 C140.777666,39.5346824 140.30604,39.6457412 139.833472,39.6457412 C139.092548,39.6457412 138.385582,39.4532706 137.848401,39.0565647 C137.837082,39.0485647 137.828121,39.0316235 137.828121,39.0179765 C137.828121,38.9925647 137.848401,38.9713882 137.87434,38.9713882 C137.883773,38.9713882 137.896506,38.9760941 137.903581,38.9817412 C138.420954,39.3643294 139.108584,39.5525647 139.833472,39.5525647 C140.29142,39.5525647 140.750311,39.4438588 141.089882,39.2495059 C141.429452,39.0551529 141.647814,38.7817412 141.647814,38.4438588 C141.647814,38.2923294 141.595464,38.1718588 141.500196,38.0683294 C141.405399,37.9648 141.265798,37.8786824 141.094598,37.8066824 C140.753613,37.6626824 140.290005,37.5746824 139.824982,37.4857412 C139.359488,37.3972706 138.892108,37.3083294 138.53603,37.1549176 C138.357756,37.0782118 138.206364,36.9850353 138.09789,36.8650353 C137.989417,36.7450353 137.926219,36.5963294 137.926219,36.4193882 C137.926219,36.1323294 138.108266,35.8320941 138.442649,35.6043294 C138.776559,35.3765647 139.264692,35.2203294 139.88818,35.2203294 C140.678153,35.2203294 141.285135,35.4560941 141.631308,35.7944471" id="Fill-42" fill="#EF8300"></path>
                <path d="M143.831911,35.22 C143.857851,35.22 143.878602,35.2407059 143.878602,35.2665882 L143.878602,35.2670588 L143.878602,37.9169412 C143.878602,38.8242353 144.608678,39.5531765 145.518444,39.5531765 C146.427737,39.5531765 147.158285,38.8242353 147.158285,37.9169412 L147.158285,35.2670588 C147.158285,35.2411765 147.179508,35.2204706 147.204504,35.2204706 C147.230444,35.2204706 147.251195,35.2411765 147.251195,35.2670588 L147.251195,37.9169412 C147.251195,38.8741176 146.47773,39.6458824 145.518444,39.6458824 C144.559158,39.6458824 143.78522,38.8741176 143.78522,37.9169412 L143.78522,35.2670588 L143.78522,35.2665882 C143.78522,35.2411765 143.805972,35.22 143.830968,35.22 L143.831911,35.22 Z" id="Fill-44" fill="#EF8300"></path>
                <path d="M149.580789,35.22 C149.606728,35.22 149.627479,35.2407059 149.627479,35.2665882 L149.627479,35.2670588 L149.627479,39.5531765 L152.682197,39.5531765 C152.708136,39.5531765 152.728888,39.5738824 152.728888,39.5997647 C152.728888,39.6251765 152.708136,39.6458824 152.682197,39.6458824 L149.580789,39.6458824 C149.554849,39.6458824 149.534098,39.6251765 149.534098,39.5997647 L149.534098,39.5992941 L149.534098,35.2670588 L149.534098,35.2665882 C149.534098,35.2411765 149.554849,35.22 149.580317,35.22 L149.580789,35.22 Z" id="Fill-46" fill="#EF8300"></path>
                <path d="M157.092224,35.2193258 C157.155893,35.2179294 157.155893,35.3139294 157.092224,35.3120471 L155.27741,35.3120471 L155.27741,39.5991059 C155.279296,39.6626353 155.183085,39.6626353 155.184499,39.5991059 L155.184499,35.3120471 L153.370157,35.3120471 C153.306959,35.3139294 153.306959,35.2179294 153.370157,35.2193258 L157.092224,35.2193258 Z" id="Fill-48" fill="#EF8300"></path>
                <path d="M159.18275,35.2664 C159.18275,35.2409882 159.203502,35.2202824 159.22897,35.2198118 L159.229441,35.2198118 C159.254909,35.2198118 159.275661,35.2405176 159.275661,35.2664 L159.275661,35.2668706 L159.275661,39.5986353 L159.275661,39.5995765 C159.275661,39.6249882 159.254909,39.6456941 159.229441,39.6456941 L159.22897,39.6456941 C159.203502,39.6452235 159.18275,39.6245176 159.18275,39.5995765 L159.18275,39.5986353 L159.18275,35.2668706 L159.18275,35.2664 Z" id="Fill-50" fill="#EF8300"></path>
                <path d="M164.715152,35.22 C164.741091,35.22 164.761842,35.2407059 164.761842,35.2665882 L164.761842,35.2670588 L164.761842,39.5992941 C164.761842,39.6251765 164.741091,39.6458824 164.715152,39.6458824 C164.702418,39.6458824 164.685439,39.6374118 164.677421,39.6265882 L161.659963,35.412 L161.659963,39.5992941 L161.659963,39.5997647 C161.659963,39.6251765 161.639683,39.6458824 161.613743,39.6458824 C161.587804,39.6458824 161.567052,39.6251765 161.567052,39.5997647 L161.567052,39.5992941 L161.567052,35.2670588 C161.567052,35.2411765 161.587804,35.2204706 161.613743,35.2204706 C161.626949,35.2204706 161.643927,35.2294118 161.651473,35.2397647 L164.668461,39.4548235 L164.668461,35.2670588 L164.668461,35.2665882 C164.668461,35.2411765 164.689212,35.22 164.71468,35.22 L164.715152,35.22 Z" id="Fill-52" fill="#EF8300"></path>
                <path d="M170.602639,35.8528 C170.610657,35.8603294 170.616316,35.8749176 170.616316,35.8857412 C170.616316,35.9111529 170.595565,35.9318588 170.570097,35.9318588 C170.55925,35.9318588 170.544629,35.9257412 170.537083,35.9182118 C170.158368,35.5403294 169.62779,35.3130353 169.019393,35.3130353 C167.802128,35.3130353 166.894721,36.2184471 166.894721,37.4330353 C166.894721,38.6476235 167.802128,39.5525647 169.019393,39.5525647 C169.621187,39.5525647 170.145163,39.3290353 170.523406,38.9586824 L170.523406,37.4796235 L168.398734,37.4796235 C168.372795,37.4796235 168.352515,37.4589176 168.352515,37.4330353 C168.352515,37.4071529 168.372795,37.3864471 168.398734,37.3864471 L170.570097,37.3864471 C170.595565,37.3864471 170.616316,37.4071529 170.616316,37.4330353 L170.616316,38.9803294 C170.616316,38.9906824 170.610657,39.0057412 170.602639,39.0132706 C170.206474,39.4085647 169.650899,39.6457412 169.019393,39.6457412 C167.755437,39.6457412 166.801339,38.6942118 166.801339,37.4330353 C166.801339,36.1718588 167.755437,35.2203294 169.019393,35.2203294 C169.650899,35.2203294 170.206474,35.4570353 170.602639,35.8528" id="Fill-54" fill="#EF8300"></path>
                <path d="M122.229113,39.7635294 C121.570252,39.7635294 121.009489,39.5385882 120.564275,39.0943529 C120.119532,38.6505882 119.893624,38.0915294 119.893624,37.4331765 C119.893624,36.7743529 120.119532,36.2157647 120.564275,35.772 C121.009489,35.3277647 121.56978,35.1028235 122.229113,35.1028235 C122.893161,35.1028235 123.454395,35.3268235 123.897251,35.7687059 C123.928379,35.7988235 123.945829,35.8407059 123.945829,35.8863529 C123.945829,35.9842353 123.876971,36.0524706 123.778873,36.0524706 C123.733597,36.0524706 123.691151,36.0345882 123.660495,36.0035294 C123.282724,35.6218824 122.801194,35.428 122.229113,35.428 C121.657031,35.428 121.174558,35.6209412 120.793485,36.0002353 C120.407695,36.3856471 120.219989,36.8543529 120.219989,37.4331765 C120.219989,38.0124706 120.407695,38.4807059 120.793485,38.8656471 C121.179274,39.2505882 121.648542,39.4374118 122.229113,39.4374118 C122.801194,39.4374118 123.282724,39.244 123.660967,38.8623529 C123.693509,38.8303529 123.735012,38.8138824 123.778873,38.8138824 C123.876971,38.8138824 123.945829,38.8821176 123.945829,38.98 C123.945829,39.0242353 123.929322,39.0656471 123.898195,39.0967059 C123.454395,39.5395294 122.893624,39.7635294 122.229113,39.7635294" id="Fill-56" fill="#EF8300"></path>
                <path d="M128.03383,35.4284235 C127.464578,35.4284235 127.007102,35.6171294 126.634989,36.0058353 C126.261462,36.3959529 126.079886,36.8627765 126.079886,37.4331294 C126.079886,37.9954824 126.26665,38.4759529 126.634989,38.8604235 C127.00663,39.2491294 127.464107,39.4378353 128.03383,39.4378353 C128.606855,39.4378353 129.099703,39.2401882 129.497755,38.8505412 C129.901938,38.4566588 130.098606,37.9926588 130.098606,37.4331294 C130.098606,36.8731294 129.901938,36.4096 129.497755,36.0157176 C129.09876,35.6260706 128.606383,35.4284235 128.03383,35.4284235 M128.03383,39.7634824 C127.60135,39.7634824 127.205184,39.6576 126.857596,39.4481882 C126.510009,39.2397176 126.235523,38.9540706 126.042628,38.5987765 C125.851148,38.2448941 125.753993,37.8528941 125.753993,37.4331294 C125.753993,37.0133647 125.851148,36.6213647 126.042628,36.2670118 C126.235994,35.9112471 126.51048,35.6256 126.857596,35.4180706 C127.206128,35.2086588 127.602293,35.1027765 128.03383,35.1027765 C128.692691,35.1027765 129.261942,35.3324235 129.72555,35.7846588 C130.189158,36.2383059 130.424499,36.7926588 130.424499,37.4331294 C130.424499,38.0736 130.189158,38.6279529 129.72555,39.0816 C129.261942,39.5338353 128.693162,39.7634824 128.03383,39.7634824" id="Fill-58" fill="#EF8300"></path>
                <path d="M135.5688,39.8183529 L135.527768,39.7614118 C135.463155,39.7708235 135.39477,39.744 135.358926,39.6884706 L132.558415,35.7816471 L132.558415,39.5967059 C132.558415,39.6950588 132.491444,39.7632941 132.395233,39.7632941 C132.299021,39.7632941 132.232522,39.6950588 132.232522,39.5967059 L132.232522,35.2691765 C132.232522,35.1995294 132.267422,35.1444706 132.322602,35.1190588 L132.322602,35.048 L132.364105,35.1058824 C132.424473,35.0955294 132.492859,35.1190588 132.531532,35.1750588 L135.332987,39.0847059 L135.332987,35.2691765 C135.332987,35.1712941 135.401373,35.1025882 135.499471,35.1025882 C135.596154,35.1025882 135.665954,35.1727059 135.665954,35.2691765 L135.665954,39.5967059 C135.665954,39.6696471 135.628224,39.7261176 135.5688,39.7501176 L135.5688,39.8183529 Z" id="Fill-60" fill="#EF8300"></path>
                <path d="M139.844272,39.7630588 C139.030247,39.7630588 138.337429,39.5569412 137.786099,39.1508235 C137.744596,39.124 137.717242,39.0755294 137.717242,39.0218824 C137.717242,38.9235294 137.786099,38.8552941 137.884197,38.8552941 L137.911551,38.8552941 L137.964373,38.8745882 C138.473257,39.252 139.099576,39.4374118 139.844272,39.4374118 C140.304107,39.4374118 140.704988,39.3404706 141.036541,39.1484706 C141.376111,38.9564706 141.540708,38.7263529 141.540708,38.4458824 C141.540708,38.3329412 141.501563,38.2369412 141.420444,38.1522353 C141.340739,38.0604706 141.220475,37.9828235 141.057764,37.9164706 C140.837987,37.8228235 140.418712,37.7178824 139.8089,37.604 C139.173149,37.4811765 138.744913,37.3701176 138.498253,37.2637647 C138.28838,37.1743529 138.126612,37.0661176 138.018139,36.9423529 C137.883725,36.7974118 137.814396,36.6209412 137.814396,36.42 C137.814396,36.2501176 137.866747,36.0830588 137.96909,35.9235294 C138.067188,35.7701176 138.204902,35.6303529 138.37846,35.5061176 L138.38129,35.5042353 C138.779814,35.2378824 139.288226,35.1028235 139.893321,35.1028235 C140.288071,35.1028235 140.646507,35.1574118 140.956836,35.2656471 C141.270467,35.3743529 141.527031,35.5244706 141.720398,35.7117647 C141.75294,35.7456471 141.769447,35.7861176 141.769447,35.8303529 C141.769447,35.9230588 141.702476,35.9898824 141.610037,35.9898824 C141.564761,35.9898824 141.522315,35.9724706 141.490716,35.9404706 C141.334608,35.7936471 141.115774,35.6694118 140.844118,35.5738824 C140.568688,35.4774118 140.248455,35.428 139.893321,35.428 C139.354725,35.428 138.909511,35.5451765 138.568997,35.7757647 C138.431282,35.8712941 138.323752,35.9790588 138.251593,36.0943529 C138.183207,36.204 138.147836,36.3136471 138.147836,36.42 C138.147836,36.5352941 138.186037,36.6350588 138.264327,36.724 C138.341674,36.8129412 138.462881,36.8938824 138.626064,36.9649412 C138.847256,37.0571765 139.267003,37.1621176 139.873041,37.276 C140.515395,37.3997647 140.944102,37.5112941 141.184631,37.6162353 C141.392146,37.7004706 141.554385,37.8068235 141.663803,37.9315294 C141.797744,38.0755294 141.866601,38.2496471 141.866601,38.4458824 C141.866601,38.8496471 141.643523,39.1828235 141.203025,39.436 C140.815349,39.6529412 140.358344,39.7630588 139.844272,39.7630588 L139.844272,39.7630588 Z" id="Fill-62" fill="#EF8300"></path>
                <path d="M145.527263,39.7634353 C145.017436,39.7634353 144.576466,39.5813176 144.217088,39.2227294 C143.857238,38.8636706 143.674719,38.4246118 143.674719,37.9182588 L143.674719,35.2688471 C143.674719,35.1709647 143.743576,35.1027294 143.841674,35.1027294 C143.933641,35.1027294 144.001083,35.1728471 144.001083,35.2688471 L144.001083,37.9182588 C144.001083,38.3432 144.146344,38.6947294 144.446298,38.9935529 C144.74578,39.2928471 145.098084,39.4377882 145.52349,39.4377882 C145.949368,39.4377882 146.301672,39.2928471 146.601154,38.9935529 C146.900636,38.6947294 147.046368,38.3432 147.046368,37.9182588 L147.046368,35.2688471 C147.046368,35.1709647 147.114754,35.1027294 147.212852,35.1027294 C147.310478,35.1027294 147.378864,35.1709647 147.378864,35.2688471 L147.378864,37.9182588 C147.378864,38.4250824 147.196817,38.8636706 146.837438,39.2227294 C146.477588,39.5813176 146.036618,39.7634353 145.527263,39.7634353" id="Fill-64" fill="#EF8300"></path>
                <path d="M152.697006,39.7634353 L149.597012,39.7634353 C149.498914,39.7634353 149.430057,39.6947294 149.430057,39.5968471 L149.430057,35.2688471 C149.430057,35.1709647 149.498914,35.1027294 149.597012,35.1027294 C149.688979,35.1027294 149.756422,35.1728471 149.756422,35.2688471 L149.756422,39.4377882 L152.697006,39.4377882 C152.793689,39.4377882 152.863961,39.5064941 152.863961,39.6006118 C152.863961,39.6966118 152.795104,39.7634353 152.697006,39.7634353" id="Fill-66" fill="#EF8300"></path>
                <path d="M155.240293,39.7650353 C155.21624,39.7650353 155.192187,39.7598588 155.17002,39.7499765 C155.111067,39.7245647 155.074752,39.6671529 155.074752,39.5970353 L155.074752,35.4280941 L153.378787,35.4280941 C153.321249,35.4280941 153.270314,35.4017412 153.239186,35.3556235 C153.204758,35.3043294 153.202871,35.2412706 153.23447,35.1862118 C153.264654,35.1335059 153.317476,35.1029176 153.378787,35.1029176 L157.097553,35.1029176 C157.166411,35.1029176 157.223477,35.1377412 157.25036,35.1956235 C157.276771,35.2596235 157.264037,35.3099765 157.248945,35.3410353 C157.217818,35.3984471 157.163581,35.4280941 157.097553,35.4280941 L155.401117,35.4280941 L155.401117,39.5970353 C155.401117,39.6930353 155.342164,39.7339765 155.316696,39.7466824 C155.292171,39.7589176 155.266232,39.7650353 155.240293,39.7650353" id="Fill-68" fill="#EF8300"></path>
                <path d="M159.242175,39.7636706 C159.14785,39.7636706 159.078993,39.6935529 159.078993,39.5970824 L159.078993,35.2690824 C159.078993,35.1712 159.14785,35.1029647 159.245948,35.1029647 C159.339802,35.1029647 159.405358,35.1712 159.405358,35.2690824 L159.405358,39.5970824 C159.405358,39.6935529 159.3365,39.7636706 159.242175,39.7636706" id="Fill-70" fill="#EF8300"></path>
                <path d="M164.799431,39.8183529 L164.7584,39.7614118 C164.692844,39.7708235 164.625401,39.744 164.589558,39.6884706 L161.789046,35.7816471 L161.789046,39.5967059 C161.789046,39.6950588 161.722076,39.7632941 161.625864,39.7632941 C161.529652,39.7632941 161.463153,39.6950588 161.463153,39.5967059 L161.463153,35.2691765 C161.463153,35.1995294 161.498054,35.1444706 161.553234,35.1190588 L161.553234,35.048 L161.594737,35.1058824 C161.655105,35.0955294 161.72349,35.1190588 161.762164,35.1750588 L164.563618,39.0847059 L164.563618,35.2691765 C164.563618,35.1712941 164.632004,35.1025882 164.730102,35.1025882 C164.826785,35.1025882 164.896586,35.1727059 164.896586,35.2691765 L164.896586,39.5967059 C164.896586,39.6696471 164.858856,39.7261176 164.799431,39.7501176 L164.799431,39.8183529 Z" id="Fill-72" fill="#EF8300"></path>
                <path d="M169.040663,39.7635294 C168.381331,39.7635294 167.820569,39.5385882 167.375354,39.0943529 C166.930612,38.6505882 166.704703,38.0915294 166.704703,37.4331765 C166.704703,36.7743529 166.930612,36.2157647 167.375354,35.772 C167.820569,35.3277647 168.381331,35.1028235 169.040663,35.1028235 C169.70424,35.1028235 170.265474,35.3268235 170.708331,35.7687059 C170.739458,35.7988235 170.756908,35.8407059 170.756908,35.8863529 C170.756908,35.9842353 170.688051,36.0524706 170.589953,36.0524706 C170.544677,36.0524706 170.50223,36.0345882 170.471575,36.0035294 C170.093803,35.6218824 169.612273,35.428 169.040663,35.428 C168.460564,35.428 167.990825,35.6152941 167.604564,36.0002353 C167.218775,36.3861176 167.031068,36.8548235 167.031068,37.4331765 C167.031068,38.012 167.218775,38.4802353 167.604564,38.8656471 C167.990354,39.2505882 168.460093,39.4374118 169.040663,39.4374118 C169.59388,39.4374118 170.04664,39.2647059 170.42394,38.9094118 L170.42394,37.5992941 L168.421419,37.5992941 C168.323321,37.5992941 168.254936,37.5310588 168.254936,37.4331765 C168.254936,37.3352941 168.323321,37.2670588 168.421419,37.2670588 L170.589953,37.2670588 C170.688051,37.2670588 170.756908,37.3352941 170.756908,37.4331765 L170.756908,38.98 C170.756908,39.0242353 170.740401,39.0656471 170.709274,39.0967059 C170.265474,39.5395294 169.704703,39.7635294 169.040663,39.7635294" id="Fill-74" fill="#EF8300"></path>
            </g>
        </g>
    </g>
</svg>